# xmcd
#
# Track frame offsets:
#	150
#	23779
#	40976
#	68017
#	86037
#	108179
#
# Disc length: 1744 seconds
#
# Revision: 2
# Processed by: cddbd v1.5.2PL0 Copyright (c) Steve Scherf et al.
# Submitted via: EasyCDDAExtractor 2011.0.0.0
#
DISCID=4306ce06
DTITLE=Various Artist - 내가 부르고 싶은 남의 노래
DYEAR=2011
DGENRE=Vocal
TTITLE0=임재범 - 빈잔
TTITLE1=김연우 - 미련
TTITLE2=BMK - 그대 내게 다시
TTITLE3=YB - 마법의 성
TTITLE4=이소라 - No.1
TTITLE5=박정현 - 이젠 그랬으면 좋겠네
EXTD=
EXTT0=
EXTT1=
EXTT2=
EXTT3=
EXTT4=
EXTT5=
PLAYORDER=
